<svg aria-hidden="true" style="position: absolute; width: 0; height: 0; overflow: hidden;" version="1.1" xmlns="http://www.w3.org/2000/svg" xmlns:xlink="http://www.w3.org/1999/xlink">
<defs>

<symbol  id="icon-menu" viewBox="0 0 32 32">
<path  fill="#27251F" d="M6.4 11.733v-2.133h19.2v2.133h-19.2zM6.4 17.067h19.2v-2.133h-19.2v2.133zM6.4 22.4h19.2v-2.133h-19.2v2.133z"></path>
</symbol>
<symbol id="icon-close_24px" viewBox="0 0 32 32">
<path d="M23.733 10.304l-1.504-1.504-5.963 5.963-5.963-5.963-1.504 1.504 5.963 5.963-5.963 5.963 1.504 1.504 5.963-5.963 5.963 5.963 1.504-1.504-5.963-5.963 5.963-5.963z"></path>
</symbol>

<symbol id="icon-icon_basket" viewBox="0 0 32 32">
<path fill="#27251F" d="M4.923 8.151h21.711v18.323h-21.711v-18.323zM6.042 9.254v16.119h19.473v-16.119h-19.473z"></path>
<path  fill="#27251F" d="M10.77 5.495c0-2.702 2.224-4.893 4.968-4.893s4.968 2.191 4.968 4.893v6.68h-1.119v-6.68c0-2.094-1.723-3.791-3.849-3.791s-3.849 1.697-3.849 3.791v6.68h-1.119v-6.68z"></path>
</symbol>
<symbol id="icon-Frame-43" viewBox="0 0 32 32">
<path  fill="#27251F" d="M20.859 19.4l7.127 7.136c0.23 0.231 0.23 0.604-0.001 0.834s-0.604 0.23-0.834-0l-7.127-7.136 0.835-0.833z"></path>
<path fill="#27251F"  d="M14.531 21.581c-4.403 0-7.972-3.569-7.972-7.972s3.569-7.972 7.972-7.972c4.403 0 7.972 3.569 7.972 7.972s-3.569 7.972-7.972 7.972zM14.531 22.761c5.054 0 9.152-4.097 9.152-9.152s-4.097-9.152-9.152-9.152-9.152 4.097-9.152 9.152c0 5.054 4.097 9.152 9.152 9.152z"></path>
</symbol>
<symbol id="icon-icon_user-1" viewBox="0 0 32 32">
<path fill="#27251F" d="M16.049 12.117c-2.59 0-4.69-2.1-4.69-4.69s2.1-4.69 4.69-4.69c2.59 0 4.69 2.1 4.69 4.69s-2.1 4.69-4.69 4.69zM16.049 13.458c3.33 0 6.030-2.7 6.030-6.030s-2.7-6.030-6.030-6.030c-3.33 0-6.030 2.7-6.030 6.030s2.7 6.030 6.030 6.030z"></path>
<path fill="#27251F"  d="M4.923 24.711c0-4.688 3.8-8.488 8.488-8.488h5.276c4.688 0 8.488 3.8 8.488 8.488v1.148h-1.34v-1.148c0-3.948-3.2-7.148-7.148-7.148h-5.276c-3.948 0-7.148 3.2-7.148 7.148v1.148h-1.34v-1.148z"></path>
</symbol>
<symbol id="icon-icon_menu" viewBox="0 0 32 32">
<path  fill="#27251F" stroke-linejoin="miter" stroke-linecap="butt" stroke-miterlimit="4" stroke-width="1.2308" d="M2.462 7.999h27.077"></path>
<path fill="#27251F" stroke-linejoin="miter" stroke-linecap="butt" stroke-miterlimit="4" stroke-width="1.2308" d="M2.462 15.949h27.077"></path>
<path fill="#27251F" stroke-linejoin="miter" stroke-linecap="butt" stroke-miterlimit="4" stroke-width="1.2308" d="M2.462 24.001h27.077"></path>
</symbol>

<symbol id="icon-search-desk" viewBox="0 0 30 32">
<path fill="#27251F" d="M20.717 20.42l9.264 9.277c0.299 0.3 0.299 0.785-0.001 1.084s-0.785 0.299-1.084-0.001l-9.264-9.277 1.085-1.084z"></path>
<path fill="#27251F"  d="M12.49 23.256c-5.724 0-10.364-4.64-10.364-10.364s4.64-10.364 10.364-10.364 10.364 4.64 10.364 10.364c0 5.724-4.64 10.364-10.364 10.364zM12.49 24.789c6.571 0 11.897-5.327 11.897-11.897s-5.327-11.897-11.897-11.897c-6.571 0-11.897 5.327-11.897 11.897s5.327 11.897 11.897 11.897z"></path>
</symbol>

<symbol fill="#27251F" id="icon-logo-desk" viewBox="0 0 153 32">
<path fill="#27251F" d="M95.717 5.488h0.646l-0.538-5.434-0.054-0.054h-0.161v0.054l-0.592 5.434h0.699zM98.783 5.865v-0.054l0.915-4.842v-0.054l-0.161-0.054-0.054 0.054-1.991 4.627 1.291 0.323zM97.815 7.963c0.377 0 0.753-0.323 0.753-0.753s-0.323-0.753-0.753-0.753c-0.43 0-0.753 0.323-0.753 0.753s0.323 0.753 0.753 0.753zM95.717 7.694c0.377 0 0.753-0.323 0.753-0.753s-0.323-0.753-0.753-0.753c-0.43 0-0.753 0.323-0.753 0.753-0.054 0.484 0.323 0.753 0.753 0.753zM92.65 5.865l1.237-0.323h0.054l-2.044-4.627-0.054-0.054-0.108 0.054-0.054 0.054 0.915 4.842 0.054 0.054zM92.811 7.156c0 0.43 0.323 0.753 0.753 0.753 0.377 0 0.753-0.323 0.753-0.753s-0.323-0.753-0.753-0.753c-0.377 0.054-0.753 0.377-0.753 0.753zM6.51 9.308h-6.51c0 0 0.161 1.56 0.161 4.25v13.612c0 2.69-0.161 4.25-0.161 4.25l0.054 0.054h4.25v-0.054c0 0-0.161-1.56-0.161-4.25v-3.982l0.054-0.054c0.592 0.054 1.883 0.108 2.314 0.108 4.358 0 8.124-2.636 8.124-7.156-0.054-4.304-3.82-6.779-8.124-6.779zM6.295 19.638c-0.484 0-1.668-0.054-2.152-0.161v-6.564h2.475c2.206 0 3.928 0.861 3.928 3.174s-1.506 3.551-4.25 3.551zM26.687 11.084c-0.484-1.13-0.646-1.776-0.646-1.776l-0.054-0.054h-3.39l-0.054 0.054c0 0-0.108 0.646-0.592 1.776l-7.479 17.97c-0.646 1.506-1.291 2.367-1.291 2.367v0.054h4.358l0.054-0.054c0-0.108 0.108-0.646 0.646-1.991l1.345-3.39h9.631l1.453 3.39c0.484 1.291 0.753 1.991 0.753 1.991l0.054 0.054h4.358v-0.054c0 0-0.592-0.807-1.291-2.367l-7.855-17.97zM21.091 22.382l3.121-7.802h0.054l3.39 7.802h-6.564zM57.678 9.308l-3.874-0.054-0.054 0.054c0 0 0.161 1.56 0.161 4.25v11.137h-0.054l-11.944-15.388h-4.251c0.484 1.022 0.753 1.722 0.753 2.206v15.657c0 2.69-0.161 4.25-0.161 4.25l0.054 0.054h3.874l0.054-0.054c0 0-0.161-1.56-0.161-4.25v-11.353h0.054l11.998 15.603h3.605l0.054-0.054c0 0-0.161-1.56-0.161-4.251v-13.559c-0.108-2.69 0.054-4.25 0.054-4.25zM69.73 9.308h-7.425l-0.054 0.054c0 0 0.161 1.56 0.161 4.251v13.612c0 2.69-0.161 4.25-0.161 4.25l0.054 0.054h2.26c1.506 0 3.174 0.215 5.058 0.215 6.779 0 11.622-4.788 11.622-11.245 0-6.564-4.681-11.191-11.514-11.191zM69.46 27.978c-1.076 0-2.044-0.054-2.636-0.215-0.323-0.108-0.43-0.215-0.43-0.807v-14.043h2.959c4.789 0 7.855 3.228 7.855 7.532 0 4.251-3.067 7.533-7.748 7.533zM95.717 8.985c-6.403 0-11.353 4.95-11.353 11.353 0 6.456 4.95 11.353 11.353 11.353 6.456 0 11.352-4.896 11.352-11.353 0-6.403-4.896-11.353-11.352-11.353zM95.717 28.086c-4.089 0-7.317-3.336-7.317-7.694s3.174-7.694 7.317-7.694c4.143 0 7.317 3.336 7.317 7.694 0 4.304-3.174 7.694-7.317 7.694zM122.834 23.943c-0.539-0.861-1.345-1.56-2.206-1.829v-0.054c2.313-0.484 4.465-3.174 4.465-5.865 0-3.659-2.798-6.887-7.156-6.887h-7.102l-0.053 0.054c0 0 0.161 1.56 0.161 4.251v13.612c0 2.69-0.161 4.25-0.161 4.25l0.053 0.054h4.251l0.054-0.054c0 0-0.162-1.56-0.162-4.25v-4.25c2.098 0 2.959 0.43 3.713 1.614l1.829 2.852c1.506 2.421 2.098 3.928 2.098 3.928l0.053 0.054h5.058v-0.054c0 0-1.292-1.56-2.745-3.928l-2.151-3.497zM116.97 19.423c-0.484 0-1.399 0-1.991-0.108v-6.403h2.421c2.367 0 3.659 1.56 3.659 3.336 0 1.668-1.292 3.174-4.089 3.174zM151.242 29.054l-7.855-17.97c-0.484-1.13-0.645-1.776-0.645-1.776l-0.054-0.054h-3.443l-0.053 0.054c0 0-0.108 0.646-0.592 1.776l-7.425 17.97c-0.645 1.506-1.292 2.367-1.292 2.367v0.054h4.358l0.054-0.054c0-0.108 0.107-0.646 0.645-1.991l1.345-3.39h9.631l1.453 3.39c0.484 1.291 0.753 1.991 0.753 1.991l0.053 0.054h4.358v-0.054c0 0-0.592-0.807-1.292-2.367zM137.791 22.382l3.121-7.802h0.053l3.39 7.802h-6.564z"></path>
</symbol>

<symbol id="icon-icon_location" viewBox="0 0 32 32">
<path fill="#27251F" d="M16 13.538c-2.039 0-3.692-1.653-3.692-3.692s1.653-3.692 3.692-3.692c2.039 0 3.692 1.653 3.692 3.692s-1.653 3.692-3.692 3.692zM16 14.769c2.719 0 4.923-2.204 4.923-4.923s-2.204-4.923-4.923-4.923-4.923 2.204-4.923 4.923c0 2.719 2.204 4.923 4.923 4.923z"></path>
<path fill="#27251F" d="M23.192 14.506c-0.893 1.921-2.095 4.011-3.312 5.957-1.215 1.942-2.432 3.72-3.346 5.014-0.192 0.272-0.371 0.522-0.533 0.748-0.162-0.226-0.341-0.476-0.533-0.748-0.914-1.294-2.131-3.072-3.346-5.014-1.218-1.947-2.419-4.037-3.312-5.957-0.915-1.968-1.424-3.59-1.424-4.66 0-4.758 3.857-8.615 8.615-8.615s8.615 3.857 8.615 8.615c0 1.070-0.509 2.692-1.424 4.66zM16.763 27.272c2.312-3.189 9.083-12.916 9.083-17.426 0-5.438-4.408-9.846-9.846-9.846s-9.846 4.408-9.846 9.846c0 4.51 6.772 14.236 9.083 17.426 0.476 0.657 0.763 1.036 0.763 1.036s0.287-0.379 0.763-1.036z"></path>
</symbol>


</defs>
</svg>